Coordinates
version=1
nRows=16
nColumns=40
inDegrees=yes

Units are S.I. units (second, meters, Newtons, ...)
Angles are in degrees.

endheader
time	pelvis_tilt	pelvis_list	pelvis_rotation	pelvis_tx	pelvis_ty	pelvis_tz	hip_flexion_r	hip_adduction_r	hip_rotation_r	knee_angle_r	knee_angle_r_beta	ankle_angle_r	subtalar_angle_r	mtp_angle_r	hip_flexion_l	hip_adduction_l	hip_rotation_l	knee_angle_l	knee_angle_l_beta	ankle_angle_l	subtalar_angle_l	mtp_angle_l	lumbar_extension	lumbar_bending	lumbar_rotation	arm_flex_r	arm_add_r	arm_rot_r	elbow_flex_r	pro_sup_r	wrist_flex_r	wrist_dev_r	arm_flex_l	arm_add_l	arm_rot_l	elbow_flex_l	pro_sup_l	wrist_flex_l	wrist_dev_l
     32.80500000	     -5.03441485	     -4.12240994	     -3.79977149	      0.75186237	      0.92059876	      0.42337237	     22.24259824	      0.83565749	     -6.00565390	     21.37509375	     21.37509375	      6.74171120	      1.69993821	     -5.46464090	      3.81891564	    -10.95892719	     -8.11084287	     30.29577108	     30.29577108	     16.48561444	    -14.10555245	     -0.63347297	    -11.08707044	      7.52942274	     -0.16709245	      0.34541335	    -16.54177017	    -15.52201280	     42.33167162	     46.19175778	      0.00000000	      0.00000000	     16.26064433	    -12.44450918	     -7.46595663	     76.49603225	     47.72760439	      0.00000000	      0.00000000
     32.82285714	     -4.99068401	     -4.17649929	     -3.35661539	      0.75383268	      0.92172048	      0.42755130	     21.44459815	      1.12349651	     -6.17497772	     21.01476280	     21.01476280	      7.13283073	      1.43292320	     -5.43418058	      5.21245663	    -11.62584347	     -7.27071152	     33.31381415	     33.31381415	     13.41259291	    -15.86304214	     -4.49733709	    -11.04167149	      7.65218591	      0.16528129	      0.95695266	    -16.99123241	    -16.47924554	     44.27262164	     46.13878082	      0.00000000	      0.00000000	     15.61483590	    -12.68866634	     -5.23424798	     75.14122863	     47.56686147	      0.00000000	      0.00000000
     32.84071429	     -4.81593052	     -4.25216285	     -2.94283648	      0.75570686	      0.92290385	      0.43169324	     20.52631428	      1.41560785	     -6.43374660	     20.67993002	     20.67993002	      7.52412783	      1.37476536	     -5.47447457	      6.80468863	    -12.30324062	     -6.34563001	     36.98753733	     36.98753733	     11.70185210	    -16.77976713	     -4.64282710	    -11.20674576	      7.68810030	      0.23054153	      2.33213787	    -17.50665704	    -16.54911613	     45.02232774	     46.12029226	      0.00000000	      0.00000000	     14.67458464	    -12.44079221	     -4.80011754	     74.25775152	     47.51779992	      0.00000000	      0.00000000
     32.85857143	     -4.71674757	     -4.24931644	     -2.50745833	      0.75734847	      0.92372943	      0.43563556	     19.80275555	      1.63859805	     -6.56298179	     20.50428504	     20.50428504	      7.85311000	      0.98328492	     -5.55244849	      8.68799022	    -12.82505238	     -5.27954274	     40.85743099	     40.85743099	      9.92049867	    -17.67327993	     -4.23680543	    -11.20852094	      7.68540876	      0.11918994	      3.63431784	    -18.00677722	    -16.05856270	     46.36226311	     46.04533894	      0.00000000	      0.00000000	     13.83706204	    -12.52939210	     -3.78971203	     72.35836421	     47.41695818	      0.00000000	      0.00000000
     32.87642857	     -4.56331979	     -4.25931560	     -2.08407706	      0.75888433	      0.92441768	      0.43948949	     19.06265117	      1.87945504	     -6.65575899	     20.39141497	     20.39141497	      8.23012217	      0.59086671	     -5.60932930	     10.69604309	    -13.24369591	     -4.06635866	     44.93016958	     44.93016958	      8.90050798	    -18.14121306	     -1.54862562	    -11.31866385	      7.61724519	      0.56417966	      4.34209590	    -18.93428497	    -14.71041771	     48.10859605	     45.90684247	      0.00000000	      0.00000000	     13.47060452	    -12.29002643	     -2.36609249	     69.96659809	     47.28950537	      0.00000000	      0.00000000
     32.89428571	     -4.30885166	     -4.33316841	     -1.64391449	      0.76029784	      0.92492281	      0.44324026	     18.33072444	      2.14727863	     -6.89204411	     20.48818995	     20.48818995	      8.64833275	      0.29579414	     -5.68027253	     12.54810615	    -13.73677388	     -3.02631136	     48.65485658	     48.65485658	      7.07736404	    -18.65864827	     -0.99242448	    -11.62883700	      7.56421618	      0.66557880	      5.86462706	    -19.39017273	    -14.69415314	     48.96282550	     45.88277966	      0.00000000	      0.00000000	     12.45429285	    -11.99565906	     -1.95651237	     68.87445058	     47.23736140	      0.00000000	      0.00000000
     32.91214286	     -4.21426646	     -4.19744795	     -1.16630595	      0.76142345	      0.92501384	      0.44667028	     17.93870081	      2.24457842	     -6.70175080	     20.84466383	     20.84466383	      9.23431788	     -0.66254435	     -5.35259844	     14.84859109	    -13.65737793	     -1.57225541	     52.65134549	     52.65134549	      7.56277868	    -18.75342272	      5.58716759	    -11.62418421	      7.29906866	      0.73808204	      6.83868170	    -20.12945518	    -12.90096939	     50.87232115	     45.73221074	      0.00000000	      0.00000000	     12.27309386	    -11.72094484	     -1.05140612	     64.67290189	     47.11747541	      0.00000000	      0.00000000
     32.93000000	     -4.13208334	     -4.20079927	     -0.65207942	      0.76237456	      0.92467729	      0.45001197	     17.65642448	      2.41967092	     -6.81083835	     21.36351256	     21.36351256	      9.77585673	     -1.29928462	     -5.36523297	     16.97808101	    -13.84562902	     -0.49723131	     55.94140626	     55.94140626	      6.50277270	    -19.00874396	      7.15610708	    -11.69711723	      7.15086654	      0.47673865	      8.35839159	    -20.24703757	    -12.65850372	     52.16228946	     45.68236396	      0.00000000	      0.00000000	     11.15790779	    -11.64105322	     -0.64436482	     62.70835878	     47.05314487	      0.00000000	      0.00000000
     32.94785714	     -3.91103081	     -4.16914303	     -0.10499709	      0.76313803	      0.92436497	      0.45302033	     17.32789312	      2.58462658	     -6.69853736	     22.05466137	     22.05466137	     10.57873417	     -2.27889226	     -4.70012614	     19.04517079	    -13.71748503	      0.73365216	     59.10348819	     59.10348819	      7.48868478	    -19.11219862	     13.42199771	    -11.93863603	      6.99146653	      0.86294566	      9.26558673	    -21.09718647	    -11.19567547	     54.04314799	     45.55849404	      0.00000000	      0.00000000	     11.32425964	    -10.87623205	     -0.26163375	     58.16357126	     46.97370743	      0.00000000	      0.00000000
     32.96571429	     -3.77290782	     -4.18893478	      0.48778325	      0.76372876	      0.92355761	      0.45591337	     17.21254871	      2.77912174	     -6.67445241	     22.94608877	     22.94608877	     11.36596098	     -3.28946036	     -4.18721973	     21.04040735	    -13.73870495	      1.62053733	     61.58126655	     61.58126655	      7.73822106	    -19.26066113	     16.23141910	    -12.11723317	      6.87228299	      0.81394529	     10.51982303	    -21.36932616	    -10.65726908	     55.88869297	     45.48185726	      0.00000000	      0.00000000	     10.91605227	    -10.46512059	     -0.01486845	     54.51058803	     46.91408098	      0.00000000	      0.00000000
     32.98357143	     -3.63333369	     -4.23308453	      1.11491893	      0.76419019	      0.92246428	      0.45864271	     17.17087232	      3.00920277	     -6.60950326	     23.94297870	     23.94297870	     12.14845302	     -4.49069192	     -3.64739431	     22.94473275	    -13.77070751	      2.31788821	     63.52499879	     63.52499879	      8.28024217	    -19.37859005	     18.40540622	    -12.29851784	      6.79002807	      0.75015836	     11.84003208	    -21.52095362	    -10.23876679	     57.66715755	     45.41618166	      0.00000000	      0.00000000	     10.60180503	     -9.99663445	      0.04733662	     50.49188681	     46.86789763	      0.00000000	      0.00000000
     33.00142857	     -3.53702274	     -4.30982104	      1.78854522	      0.76451438	      0.92092407	      0.46116240	     17.28108595	      3.23108826	     -6.67526711	     25.09536681	     25.09536681	     12.80184249	     -5.69184498	     -3.68744848	     24.79430358	    -13.87068791	      2.77661833	     64.86924694	     64.86924694	      8.66839680	    -19.45823531	     18.83572258	    -12.45098227	      6.74266562	      0.31367413	     13.58294635	    -21.19341992	    -10.22801965	     59.15796982	     45.37371543	      0.00000000	      0.00000000	      9.50184085	     -9.97667100	      0.20017195	     48.24582668	     46.82108559	      0.00000000	      0.00000000
     33.01928571	     -3.38445038	     -4.35761754	      2.44132321	      0.76481263	      0.91941795	      0.46346803	     17.31512185	      3.50136488	     -6.45929509	     26.21644564	     26.21644564	     13.73465202	     -7.12615950	     -2.60250267	     26.50497881	    -13.83506243	      3.12337632	     65.73170264	     65.73170264	     10.16489489	    -19.52077855	     21.48352144	    -12.64203878	      6.70451136	      0.51029242	     14.58527404	    -21.46919710	     -9.60486674	     61.27875849	     45.29373008	      0.00000000	      0.00000000	     10.09632530	     -9.14429255	     -0.13845743	     42.08509579	     46.81052600	      0.00000000	      0.00000000
     33.03714286	     -3.25165459	     -4.40386096	      3.10046081	      0.76509261	      0.91758891	      0.46552333	     17.43129003	      3.72241183	     -6.39043325	     27.43654335	     27.43654335	     14.60009519	     -8.40280894	     -1.87176002	     28.08164247	    -13.81776594	      3.22886764	     65.97085430	     65.97085430	     11.35761677	    -19.56726445	     22.35802293	    -12.84973575	      6.68361890	      0.40687471	     15.89232050	    -21.22415335	     -9.75427769	     63.36343941	     45.24860241	      0.00000000	      0.00000000	      9.80967992	     -8.74482181	     -0.42791574	     38.03748098	     46.80640893	      0.00000000	      0.00000000
     33.05500000	     -3.14455423	     -4.41322112	      3.74520437	      0.76535693	      0.91553071	      0.46734687	     17.62918411	      3.86117838	     -6.42299364	     28.74688384	     28.74688384	     15.25986095	     -9.60628183	     -1.94951958	     29.49749253	    -13.73730237	      3.15355836	     65.56497154	     65.56497154	     12.41447208	    -19.59513519	     22.40679899	    -13.04277144	      6.64167547	      0.05722817	     17.66873407	    -20.63268772	     -9.84624074	     64.91944580	     45.20929725	      0.00000000	      0.00000000	      8.67625744	     -8.80371644	     -0.36509839	     36.25703699	     46.77312591	      0.00000000	      0.00000000
     33.07285714	     -3.02384636	     -4.38510635	      4.35605633	      0.76565354	      0.91349222	      0.46891138	     17.74385606	      3.98561108	     -6.36317690	     29.92423328	     29.92423328	     15.89957113	    -10.87306125	     -1.84409270	     30.72698093	    -13.56046445	      2.94117026	     64.62900748	     64.62900748	     13.52281549	    -19.61262298	     22.64684440	    -13.27542643	      6.61800315	     -0.31740484	     19.42878332	    -19.98900867	     -9.82729058	     66.56683169	     45.16310634	      0.00000000	      0.00000000	      7.65995121	     -8.82378823	     -0.29103746	     34.08408482	     46.73994029	      0.00000000	      0.00000000
